<svg xmlns="http://www.w3.org/2000/svg" viewBox="0 0 676.9 220.0" width="677" height="220"><rect width="676.896" height="220" fill="#1C1C1A"/><g transform="translate(40,40) scale(1.4)"><rect x="4" y="4" width="92" height="92" rx="22" fill="#F3EFE6"/><path d="M47.99240478515625 45.32904235839843 63.196745117187504 66.10955310058594Q64.52038342285157 67.86817016601562 65.92584088134765 68.7650850830078Q67.33129833984376 69.66199999999999 69.12929833984376 69.72V70.3H64.34646838378906Q63.731255615234375 70.3 62.25330877685547 70.23060638427734Q60.775361938476564 70.16121276855469 58.912138488769536 69.75418084716796Q57.04891503906251 69.34714892578124 55.16808520507813 68.3456276245117Q53.28725537109375 67.34410632324219 51.8787021484375 65.47985095214844Q51.597 65.09251049804688 50.740457458496095 63.9273296508789Q49.88391491699219 62.762148803710936 48.71146813964844 61.147457336425774Q47.53902136230469 59.53276586914062 46.28060650634765 57.79792547607421Q45.022191650390624 56.063085083007806 43.94364558919271 54.568703908284505Q42.86509952799479 53.074322733561196 42.17875203450521 52.12335289510091Q41.49240454101563 51.172383056640626 41.49240454101563 51.172383056640626ZM62.53600036621094 30.105999999999995 45.08836206054688 50.82025537109375 41.49240454101563 51.172383056640626 57.442404541015634 30.105999999999995ZM66.60842590332031 29.699999999999996V30.231054711914062H66.37642590332031Q64.46242590332031 30.231054711914062 62.80942590332031 30.998133740234373Q61.15642590332031 31.765212768554683 59.996425903320315 33.06399999999999L55.28604284667969 32.94799999999999Q56.004830078125 31.961999999999996 55.54704284667969 31.091999999999995Q55.08925561523438 30.221999999999994 53.905780436197915 30.221999999999994H53.31404284667969V29.699999999999996H66.37642590332031ZM39.63640454101562 29.699999999999996V70.3H30.936616943359375V29.699999999999996ZM31.110616943359375 66.066V70.3H26.470616943359374V69.72Q26.54104248046875 69.72 26.86522332763672 69.72Q27.18940417480469 69.72 27.224616943359376 69.72Q28.732616943359375 69.72 29.805616943359375 68.64699999999999Q30.878616943359376 67.574 30.936616943359375 66.066ZM31.110616943359375 33.934H30.936616943359375Q30.878616943359376 32.425999999999995 29.805616943359375 31.352999999999994Q28.732616943359375 30.279999999999994 27.224616943359376 30.279999999999994Q27.18940417480469 30.279999999999994 26.86522332763672 30.279999999999994Q26.54104248046875 30.279999999999994 26.470616943359374 30.279999999999994V29.699999999999996H31.110616943359375ZM39.46240454101563 66.066H39.63640454101562Q39.69440454101563 67.574 40.76740454101563 68.64699999999999Q41.84040454101563 69.72 43.348404541015626 69.72Q43.418830078125 69.72 43.734325984074516 69.72Q44.04982189002404 69.72 44.10240454101563 69.72V70.3H39.46240454101563ZM39.46240454101563 33.934V29.699999999999996H44.10240454101563V30.279999999999994Q44.04440454101562 30.279999999999994 43.73161730957031 30.279999999999994Q43.418830078125 30.279999999999994 43.348404541015626 30.279999999999994Q41.84040454101563 30.279999999999994 40.76740454101563 31.352999999999994Q39.69440454101563 32.425999999999995 39.63640454101562 33.934Z" fill="#1C1C1A"/><circle cx="76" cy="64.3" r="6" fill="#E08A1E"/></g><path d="M252.330958984375 83.61302978515624 275.39961328125 115.14208056640625Q277.40789208984376 117.8103271484375 279.5403103027344 119.17116357421875Q281.672728515625 120.532 284.400728515625 120.62V121.5H277.14402099609373Q276.2105947265625 121.5 273.9681926269531 121.39471313476562Q271.72579052734375 121.28942626953125 268.8988308105469 120.67186059570312Q266.07187109375 120.054294921875 263.2181982421875 118.53474536132813Q260.364525390625 117.01519580078126 258.22741015625 114.18667041015625Q257.8 113.5989814453125 256.5004182128906 111.83112084960938Q255.20083642578123 110.06326025390625 253.42195166015625 107.61338354492187Q251.64306689453124 105.1635068359375 249.73374780273437 102.53133520507812Q247.8244287109375 99.89916357421875 246.18801399739584 97.63182661946615Q244.55159928385416 95.36448966471355 243.51024446614582 93.92163887532553Q242.4688896484375 92.47878808593751 242.4688896484375 92.47878808593751ZM274.39710400390624 60.516000000000005 247.9248251953125 91.944525390625 242.4688896484375 92.47878808593751 266.66888964843747 60.516000000000005ZM280.57595654296875 59.900000000000006V60.70573818359376H280.2239565429687Q277.3199565429687 60.70573818359376 274.81195654296874 61.86958222656251Q272.30395654296876 63.033426269531255 270.5439565429688 65.004L263.3971684570312 64.828Q264.4877421875 63.332 263.79316845703124 62.012Q263.0985947265625 60.692 261.3029772135417 60.692H260.40516845703127V59.900000000000006H280.2239565429687ZM239.6528896484375 59.900000000000006V121.5H226.4532119140625V59.900000000000006ZM226.7172119140625 115.076V121.5H219.6772119140625V120.62Q219.784064453125 120.62 220.27592504882813 120.62Q220.76778564453124 120.62 220.8212119140625 120.62Q223.1092119140625 120.62 224.73721191406253 118.992Q226.3652119140625 117.364 226.4532119140625 115.076ZM226.7172119140625 66.32400000000001H226.4532119140625Q226.3652119140625 64.036 224.73721191406253 62.408Q223.1092119140625 60.78 220.8212119140625 60.78Q220.76778564453124 60.78 220.27592504882813 60.78Q219.784064453125 60.78 219.6772119140625 60.78V59.900000000000006H226.7172119140625ZM239.3888896484375 115.076H239.6528896484375Q239.7408896484375 117.364 241.36888964843752 118.992Q242.9968896484375 120.62 245.2848896484375 120.62Q245.3917421875 120.62 245.8704256310096 120.62Q246.34910907451922 120.62 246.4288896484375 120.62V121.5H239.3888896484375ZM239.3888896484375 66.32400000000001V59.900000000000006H246.4288896484375V60.78Q246.3408896484375 60.78 245.86631591796873 60.78Q245.3917421875 60.78 245.2848896484375 60.78Q242.9968896484375 60.78 241.36888964843752 62.408Q239.7408896484375 64.036 239.6528896484375 66.32400000000001ZM307.37233203125 59.98800000000001 325.36829980468747 92.749115234375 312.929244140625 93.95919580078126 292.324654296875 59.98800000000001ZM325.85233203125 93.164V121.5H312.65265429687497V93.164ZM340.020396484375 59.98800000000001H346.88433203125L324.91577441406247 94.9051474609375L320.4655439453125 94.044ZM336.412396484375 66.236Q337.1509702148437 65.004 336.8027863769531 63.72800000000001Q336.4546025390625 62.452000000000005 335.4970969848632 61.616Q334.539591430664 60.78 333.32094799804685 60.78Q333.32094799804685 60.78 332.7986722412109 60.78Q332.27639648437497 60.78 332.27639648437497 60.78V59.900000000000006H353.25490576171876V60.78H352.02290576171873Q349.2949057617187 60.78 346.8921926269531 62.364000000000004Q344.48947949218746 63.948 343.13490576171876 65.97200000000001ZM310.8231845703125 66.236 295.89808056640624 65.97200000000001Q294.6660805664062 63.948 292.29008056640623 62.364000000000004Q289.91408056640626 60.78 287.0980805664062 60.78H285.86608056640625V59.900000000000006H314.9937583007812V60.78Q314.9937583007812 60.78 314.4484714355468 60.78Q313.9031845703125 60.78 313.9031845703125 60.78Q311.9410650607639 60.78 310.91541168077254 62.584Q309.88975830078124 64.388 310.8231845703125 66.236ZM312.8820805664062 115.076V121.5H305.87665429687496V120.62Q305.87665429687496 120.62 306.404654296875 120.62Q306.932654296875 120.62 307.02065429687497 120.62Q309.308654296875 120.62 310.93665429687496 118.992Q312.564654296875 117.364 312.65265429687497 115.076ZM325.58833203125 115.076H325.85233203125Q325.85233203125 117.364 327.52433203124997 118.992Q329.19633203125 120.62 331.48433203125 120.62Q331.48433203125 120.62 332.01233203125 120.62Q332.54033203125 120.62 332.54033203125 120.62V121.5H325.58833203125ZM380.0448896484375 59.900000000000006V121.5H366.8452119140625V59.900000000000006ZM403.270626953125 117.70347460937501 405.407677734375 121.5H379.7808896484375V117.70347460937501ZM409.70715234375 103.5041611328125 405.671677734375 121.5H388.3923642578125L391.56036425781247 117.70347460937501Q395.9572329101562 117.70347460937501 399.33264306640626 115.98434326171875Q402.70805322265625 114.2652119140625 405.0903159179687 111.06423608398438Q407.47257861328126 107.86326025390625 408.8477009089543 103.5041611328125ZM367.1092119140625 115.076V121.5H360.0692119140625V120.62Q360.0692119140625 120.62 360.6412119140625 120.62Q361.21321191406247 120.62 361.21321191406247 120.62Q363.5012119140625 120.62 365.12921191406247 118.992Q366.7572119140625 117.364 366.8452119140625 115.076ZM367.1092119140625 66.32400000000001H366.8452119140625Q366.7572119140625 64.036 365.12921191406247 62.408Q363.5012119140625 60.78 361.21321191406247 60.78Q361.21321191406247 60.78 360.6412119140625 60.78Q360.0692119140625 60.78 360.0692119140625 60.78V59.900000000000006H367.1092119140625ZM379.7808896484375 66.32400000000001V59.900000000000006H386.8208896484375V60.78Q386.7328896484375 60.78 386.20488964843753 60.78Q385.6768896484375 60.78 385.6768896484375 60.78Q383.3888896484375 60.78 381.76088964843746 62.408Q380.13288964843747 64.036 380.0448896484375 66.32400000000001ZM447.85258984374997 58.13373730468751 476.57190332031246 120.972H460.81083154296874L442.5130297851562 75.09536669921874ZM428.93258984375 115.076Q428.2097373046875 116.836 428.6497373046875 118.068Q429.0897373046875 119.3 430.1551635742187 119.96000000000001Q431.22058984374996 120.62 432.27658984375 120.62H433.06858984375V121.5H414.2052119140625V120.62Q414.2052119140625 120.62 414.60121191406245 120.62Q414.99721191406246 120.62 414.99721191406246 120.62Q417.02121191406246 120.62 419.17721191406247 119.344Q421.3332119140625 118.068 422.7412119140625 115.076ZM447.85258984374997 58.13373730468751 448.16375341796873 68.888396484375 426.342884765625 121.236H419.94093310546873L442.736064453125 69.655345703125Q443.0031958007812 69.17450927734376 443.64747460937497 67.700525390625Q444.2917534179687 66.22654150390625 445.0586059570312 64.37541015625Q445.82545849609374 62.524278808593756 446.41631103515624 60.81457373046875Q447.00716357421874 59.104868652343754 447.06058984375 58.13373730468751ZM457.10843994140623 100.52129736328125V104.22982275390625H431.16722802734375V100.52129736328125ZM458.3971264648437 115.076H473.8407719726562Q475.26762451171874 118.068 477.41419824218747 119.344Q479.56077197265626 120.62 481.5847719726562 120.62Q481.5847719726562 120.62 481.93677197265623 120.62Q482.28877197265626 120.62 482.28877197265626 120.62V121.5H454.26112646484376V120.62H455.05312646484373Q456.778552734375 120.62 458.12526586914066 119.168Q459.47197900390626 117.716 458.3971264648437 115.076ZM508.38715234375 59.900000000000006V98.62Q508.38715234375 104.8491474609375 510.4787341308594 109.42201611328124Q512.5703159179687 113.994884765625 516.3936188964844 116.46517968750001Q520.216921875 118.935474609375 525.4403642578125 118.935474609375Q530.8555278320313 118.935474609375 534.7479782714844 116.5971796875Q538.6404287109375 114.258884765625 540.78387109375 109.96730297851562Q542.9273134765625 105.67572119140625 542.9273134765625 99.76400000000001V59.900000000000006H549.2003642578125V99.2297373046875Q549.2003642578125 106.414294921875 546.1722248535157 111.69586059570312Q543.1440854492188 116.97742626953125 537.4555278320313 119.85471313476563Q531.7669702148437 122.732 523.837576171875 122.732Q514.4499516601562 122.732 508.041705078125 119.872Q501.63345849609374 117.012 498.41046655273436 111.7571474609375Q495.187474609375 106.502294921875 495.187474609375 99.3177373046875V59.900000000000006ZM495.451474609375 59.900000000000006V65.18H495.187474609375Q495.187474609375 63.24400000000001 493.823474609375 62.012Q492.459474609375 60.78 490.523474609375 60.78Q490.523474609375 60.78 489.819474609375 60.78Q489.115474609375 60.78 489.115474609375 60.78V59.900000000000006ZM514.45915234375 59.900000000000006V60.78Q514.45915234375 60.78 513.7551523437501 60.78Q513.05115234375 60.78 513.05115234375 60.78Q511.11515234374997 60.78 509.75115234375 62.012Q508.38715234375 63.24400000000001 508.38715234375 65.18H508.21115234375V59.900000000000006ZM543.1913134765625 59.900000000000006V65.18H542.9273134765625Q542.9273134765625 63.24400000000001 541.5633134765625 62.012Q540.1993134765625 60.78 538.2633134765625 60.78Q538.2633134765625 60.78 537.5593134765625 60.78Q536.8553134765625 60.78 536.8553134765625 60.78V59.900000000000006ZM555.2723642578125 59.900000000000006V60.78Q555.2723642578125 60.78 554.5683642578124 60.78Q553.8643642578124 60.78 553.8643642578124 60.78Q551.9283642578125 60.78 550.5643642578125 62.012Q549.2003642578125 63.24400000000001 549.2003642578125 65.18H549.0243642578125V59.900000000000006ZM599.6782626953125 59.900000000000006Q610.0559355468749 59.900000000000006 617.6207719726563 63.62114746093751Q625.1856083984375 67.34229492187501 629.2964609374999 74.26758178710938Q633.4073134765624 81.19286865234375 633.4073134765624 90.7Q633.4073134765624 100.20713134765626 629.2964609374999 107.11513134765624Q625.1856083984375 114.02313134765625 617.6207719726563 117.76156567382813Q610.0559355468749 121.5 599.6782626953125 121.5H578.7092119140624L578.6212119140624 117.791474609375Q581.1856728515625 117.791474609375 583.9592062988281 117.791474609375Q586.7327397460937 117.791474609375 589.352321533203 117.791474609375Q591.9719033203124 117.791474609375 594.0666486816406 117.791474609375Q596.1613940429687 117.791474609375 597.3855656738281 117.791474609375Q598.6097373046874 117.791474609375 598.6097373046874 117.791474609375Q604.9489331054687 117.791474609375 609.5218339843749 114.4851796875Q614.0947348632811 111.178884765625 616.5776196289062 105.11001611328126Q619.0605043945312 99.04114746093751 619.0605043945312 90.7Q619.0605043945312 82.3588525390625 616.5776196289062 76.28998388671874Q614.0947348632811 70.221115234375 609.5045471191405 66.91482031250001Q604.9143593749999 63.608525390625005 598.6097373046874 63.608525390625005Q598.6097373046874 63.608525390625005 597.3242788085936 63.608525390625005Q596.0388203124999 63.608525390625005 593.8387880859374 63.608525390625005Q591.6387558593749 63.608525390625005 588.9311740722655 63.608525390625005Q586.2235922851562 63.608525390625005 583.3180588378906 63.608525390625005Q580.412525390625 63.608525390625005 577.7412119140624 63.608525390625005V59.900000000000006ZM587.6848896484374 59.900000000000006V121.5H574.4852119140625V59.900000000000006ZM574.7492119140625 115.076V121.5H567.7092119140624V120.62Q567.7092119140624 120.62 568.2812119140624 120.62Q568.8532119140624 120.62 568.8532119140624 120.62Q571.1412119140624 120.62 572.7692119140625 118.992Q574.3972119140624 117.364 574.4852119140625 115.076ZM574.7492119140625 66.32400000000001H574.4852119140625Q574.4852119140625 64.036 572.8132119140624 62.408Q571.1412119140624 60.78 568.8532119140624 60.78Q568.8532119140624 60.78 568.3252119140625 60.78Q567.7972119140625 60.78 567.7972119140625 60.78L567.7092119140624 59.900000000000006H574.7492119140625Z" fill="#F3EFE6"/><rect x="220" y="152.8" width="48" height="2" fill="#E08A1E"/><path d="M292.77091021102666 160.1 285.9249153880477 153.24079320818186Q285.093192841351 152.40937808930875 284.7477041140795 151.73134915864466Q284.40221538680794 151.0533202279806 284.40221538680794 150.28273803710937Q284.40221538680794 149.43285527938605 284.82351250594854 148.75195132133365Q285.24480962508915 148.07104736328125 286.0453547911048 147.67752368164062Q286.8458999571204 147.284 287.9746440977454 147.284Q289.101369140625 147.284 289.8802635498047 147.69489956352115Q290.6591579589844 148.1057991270423 291.0695136992633 148.79492525306344Q291.4798694395423 149.48405137908458 291.46374132049084 150.3494510372877H289.38610123854875Q289.38873155486584 149.6541285275221 288.9671294892132 149.30452617782356Q288.5455274235606 148.954923828125 287.9560204530358 148.954923828125Q287.2724752870202 148.954923828125 286.8748458251953 149.32090177330375Q286.4772163633704 149.6868797184825 286.4772163633704 150.26473803710937Q286.4772163633704 150.73863148224353 286.76451261314753 151.2320002965629Q287.0518088629246 151.72536911088227 287.6225315989852 152.33333129411935L295.3716421446204 160.1ZM287.1884972346425 160.30855126953125Q285.83974126571417 160.30855126953125 284.83578203719856 159.83155126953125Q283.83182280868294 159.35455126953124 283.2814319395423 158.48550735160708Q282.73104107040166 157.61646343368292 282.73104107040166 156.45437559783457Q282.73104107040166 155.54460034179687 283.1032193204462 154.77292944335937Q283.4753975704908 154.00125854492188 284.22565153151754 153.4028387451172Q284.9759054925442 152.8044189453125 286.0841447503567 152.44705805069208L286.8966198182702 152.17938916015623L287.8870964355469 153.534376953125L287.09588889098166 153.79335346084832Q285.95104375594855 154.1766223144531 285.39910400390625 154.82213061523436Q284.84716425186394 155.46763891601563 284.84716425186394 156.33069791823624Q284.84716425186394 156.94657169753313 285.1456307373047 157.44746256667375Q285.4440972227454 157.94835343581437 285.995724868387 158.23332469451427Q286.54735251402855 158.51829595321416 287.2904647936821 158.51829595321416Q288.28867654341457 158.51829595321416 289.0777165425718 158.0796253388226Q289.866756541729 157.64095472443103 290.6124991376996 156.66958045214415Q290.95325184828044 156.22687681382894 291.2978823539615 155.66189782479404Q291.6425128596425 155.09691883575917 292.0049875488281 154.39554668563605L292.4363591308594 153.56165380859375H294.64729193741084L293.98144813263417 154.86201223677395Q293.5188901914954 155.7843460020423 293.04857169753313 156.54708897438644Q292.57825320357085 157.3098319467306 292.0818615769744 157.90258886247872Q291.05664637953043 159.16212391388416 289.8714372856021 159.73533759170772Q288.68622819167376 160.30855126953125 287.1884972346425 160.30855126953125ZM315.46716346937416 160.1V147.5H320.41657460218664Q321.73367714124913 147.5 322.62529896742103 147.91555126953125Q323.51692079359293 148.3311025390625 323.97126698499915 149.06010253906248Q324.4256131764054 149.7891025390625 324.4256131764054 150.733794921875Q324.4256131764054 151.6908974609375 324.01006190687417 152.3388974609375Q323.5945106373429 152.98689746093748 322.91578627210856 153.33262182617187Q322.23706190687415 153.67834619140623 321.45126698499917 153.74289746093748L321.72561317640543 153.548Q322.57285682874914 153.57344873046875 323.24940809828036 153.99862182617187Q323.92595936781163 154.423794921875 324.31978627210856 155.1220705566406Q324.71361317640543 155.82034619140626 324.71361317640543 156.662Q324.71361317640543 157.65324365234375 324.23444008070226 158.43251928710936Q323.75526698499914 159.211794921875 322.835093889296 159.6558974609375Q321.9149207935929 160.1 320.5829207935929 160.1ZM317.62720302015543 158.333486328125H320.2644974537492Q321.33393300062414 158.333486328125 321.9257533131241 157.83476855468749Q322.51757362562415 157.33605078124998 322.51757362562415 156.42737158203124Q322.51757362562415 155.521794921875 321.90775331312415 154.99452587890624Q321.29793300062414 154.4672568359375 320.2284974537492 154.4672568359375H317.62720302015543ZM317.62720302015543 152.82923046874998H320.1074588795304Q321.1377918873429 152.82923046874998 321.67995839124916 152.35378833007812Q322.2221248951554 151.87834619140625 322.2221248951554 151.0298720703125Q322.2221248951554 150.20250048828126 321.67995839124916 149.72333398437502Q321.1377918873429 149.24416748046875 320.07580507093667 149.24416748046875H317.62720302015543ZM334.63752515119313 160.19Q334.03374091672896 160.19 333.6510805163383 159.8147883300781Q333.2684201159477 159.43957666015623 333.2684201159477 158.90329443359374Q333.2684201159477 158.35211474609375 333.6510805163383 157.97690307617188Q334.03374091672896 157.60169140624998 334.63752515119313 157.60169140624998Q335.2391388659477 157.60169140624998 335.6152040788829 157.97690307617188Q335.9912692918181 158.35211474609375 335.9912692918181 158.90329443359374Q335.9912692918181 159.43957666015623 335.6152040788829 159.8147883300781Q335.2391388659477 160.19 334.63752515119313 160.19ZM348.2309505787492 160.316Q347.02991200453044 160.316 346.1364246998429 159.85792944335935Q345.2429373951554 159.39985888671873 344.75352064710853 158.5228203125Q344.2641038990617 157.64578173828124 344.2641038990617 156.4031533203125H346.42724598890544Q346.42724598890544 156.99590966796873 346.6118997974992 157.44559545898437Q346.7965536060929 157.89528124999998 347.1810663014054 158.14014013671874Q347.56557899671793 158.3849990234375 348.1831556568742 158.3849990234375Q348.7827323170304 158.3849990234375 349.14924501234293 158.1528645019531Q349.51575770765544 157.92072998046874 349.6824115162492 157.50021728515622Q349.8490653248429 157.07970458984374 349.8490653248429 156.5167431640625V147.5H352.0091048756242V156.5167431640625Q352.0091048756242 158.35026904296873 350.9927201099992 159.33313452148437Q349.9763353443742 160.316 348.2309505787492 160.316ZM378.4230080316067 160.316Q376.64411057066917 160.316 375.3083862054348 159.5081730957031Q373.97266184020043 158.70034619140625 373.2337302942574 157.24979492187498Q372.4947987483144 155.79924365234373 372.4947987483144 153.8626923828125Q372.4947987483144 151.92924365234376 373.2524657217442 150.445794921875Q374.010132695174 148.96234619140625 375.4197190099 148.12317309570312Q376.82930532462603 147.284 378.7670755442321 147.284Q380.9641237542629 147.284 382.4183701508492 148.33451928710937Q383.8726165474355 149.38503857421875 384.29164542800186 151.2551796875H381.8629298117193Q381.5953278558254 150.329744140625 380.8045780999661 149.8015456542969Q380.0138283441067 149.27334716796875 378.7581877191067 149.27334716796875Q377.48391867613793 149.27334716796875 376.56991290724534 149.8310329589844Q375.6559071383527 150.38871875 375.17709708395853 151.4178146972656Q374.69828702956437 152.44691064453124 374.69828702956437 153.87014111328125Q374.69828702956437 155.3008203125 375.17900690558554 156.32029443359374Q375.65972678160665 157.33976855468748 376.54327145934104 157.86983251953126Q377.42681613707543 158.399896484375 378.61108518004414 158.399896484375Q380.37382834410664 158.399896484375 381.27692429137227 157.41673657226562Q382.1800202386379 156.43357666015623 382.3389176995754 154.83905175781248H379.08280295348163V153.2041279296875H384.5200597894192V160.1H382.5307126214504L382.3600202386379 158.36519287109374Q381.9472638909817 158.99146191406248 381.4032319085598 159.429974609375Q380.85919992613793 159.8684873046875 380.1305141351223 160.09224365234377Q379.40182834410666 160.316 378.4230080316067 160.316ZM393.8291634693742 160.1V147.5H398.35153602796794Q399.85733094984295 147.5 400.8342989674211 148.01362182617186Q401.8112669849992 148.52724365234374 402.2873375416398 149.38503857421875Q402.7634080982804 150.24283349609374 402.7634080982804 151.3091796875Q402.7634080982804 152.3171796875 402.29323500257726 153.18180151367187Q401.82306190687416 154.04642333984376 400.8392669849992 154.56904516601563Q399.8554720631242 155.0916669921875 398.30933094984294 155.0916669921875H395.98920302015546V160.1ZM400.3997787037492 160.1 397.7544071217179 154.53303857421875H400.1093441334367L402.8819593678117 160.1ZM395.98920302015546 153.49398681640625H398.2137411060929Q399.4153817310929 153.49398681640625 399.98237513929604 152.90744213867185Q400.54936854749917 152.3208974609375 400.54936854749917 151.3718720703125Q400.54936854749917 150.42719287109375 399.9929264088273 149.8670263671875Q399.4364842701554 149.30685986328123 398.2031898365617 149.30685986328123H395.98920302015546ZM417.7453880843352 160.316Q415.9144915386189 160.316 414.52061788052373 159.4932756347656Q413.12674422242856 158.67055126953124 412.33877148537147 157.20355126953126Q411.5507987483144 155.73655126953125 411.5507987483144 153.79999999999998Q411.5507987483144 151.874 412.33877148537147 150.40699999999998Q413.12674422242856 148.94 414.52061788052373 148.112Q415.9144915386189 147.284 417.7453880843352 147.284Q419.5990653014955 147.284 420.9969310483424 148.112Q422.39479679518934 148.94 423.171119210273 150.40699999999998Q423.94744162535665 151.874 423.94744162535665 153.79999999999998Q423.94744162535665 155.73655126953125 423.171119210273 157.20355126953126Q422.39479679518934 158.67055126953124 420.9969310483424 159.4932756347656Q419.5990653014955 160.316 417.7453880843352 160.316ZM417.7500517327785 158.38065283203125Q418.9608399533033 158.38065283203125 419.8594899159573 157.82669140625Q420.75813987861125 157.27272998046874 421.25104661135896 156.24580712890622Q421.74395334410667 155.21888427734373 421.74395334410667 153.79999999999998Q421.74395334410667 152.3736669921875 421.25104661135896 151.3504685058594Q420.75813987861125 150.32727001953126 419.8594899159573 149.77858422851563Q418.9608399533033 149.2298984375 417.7500517327785 149.2298984375Q416.54614328786806 149.2298984375 415.64773296662065 149.77858422851563Q414.7493226453732 150.32727001953126 414.25180483746874 151.3504685058594Q413.75428702956435 152.3736669921875 413.75428702956435 153.79999999999998Q413.75428702956435 155.21888427734373 414.25180483746874 156.24580712890622Q414.7493226453732 157.27272998046874 415.64773296662065 157.82669140625Q416.54614328786806 158.38065283203125 417.7500517327785 158.38065283203125ZM437.82523296493287 160.316Q436.4621943907141 160.316 435.3533289121985 159.77165380859375Q434.2444634336829 159.2273076171875 433.5883928770422 158.11906396484375Q432.9323223204016 157.0108203125 432.9323223204016 155.307025390625V147.5H435.0923618711829V155.325025390625Q435.0923618711829 156.34790966796874 435.43032329696416 157.0213518066406Q435.76828472274536 157.69479394531248 436.39517559188596 158.0212746582031Q437.0220664610266 158.34775537109374 437.8686816954016 158.34775537109374Q438.73329692977666 158.34775537109374 439.34963652938603 158.0212746582031Q439.9659761289954 157.69479394531248 440.3023862852454 157.0213518066406Q440.6387964414954 156.34790966796874 440.6387964414954 155.325025390625V147.5H442.7988359922766V155.307025390625Q442.7988359922766 157.0108203125 442.12786797469846 158.11906396484375Q441.45689995712036 159.2273076171875 440.32786138290163 159.77165380859375Q439.1988228086829 160.316 437.82523296493287 160.316ZM452.21516346937415 160.1V147.5H456.75723011976476Q458.27579111890026 147.5 459.26637431281995 148.01002387695314Q460.2569575067397 148.52004775390625 460.74011224586945 149.3909198852539Q461.22326698499916 150.26179201660156 461.22326698499916 151.36693752441406Q461.22326698499916 152.40984057617186 460.75479887273906 153.28315707710385Q460.28633076047896 154.15647357803581 459.29811678965433 154.68817550972102Q458.3099028188297 155.21987744140625 456.75723011976476 155.21987744140625H454.3752030201554V160.1ZM454.3752030201554 153.4577099609375H456.6419331899881Q457.9163586175441 153.4577099609375 458.4680686606466 152.88877077934146Q459.0197787037491 152.3198315977454 459.0197787037491 151.36662974782183Q459.0197787037491 150.37584076553583 458.4680686606466 149.82117721870543Q457.9163586175441 149.266513671875 456.6419331899881 149.266513671875H454.3752030201554Z" fill="#F2C27E"/></svg>